<svg xmlns="http://www.w3.org/2000/svg" viewBox="0 0 439.81 141.96"><defs><style>.cls-1,.cls-2,.cls-4{fill:#2e3192;}.cls-1,.cls-3,.cls-4{stroke:#2e3192;}.cls-1,.cls-4{stroke-linejoin:round;}.cls-1,.cls-3{stroke-width:4px;}.cls-3{fill:#00aeef;stroke-miterlimit:10;}.cls-4{stroke-linecap:square;stroke-width:2px;}.cls-5{font-size:63px;fill:#231f20;font-family:TimesNewRomanPSMT, Times New Roman;}</style></defs><g id="Layer_2" data-name="Layer 2"><g id="Layer_1-2" data-name="Layer 1"><path class="cls-1" d="M67.84,140a47.6,47.6,0,0,0-37.38,0Q25.08,89.1,19.7,38.23q13.73,5,27.92,9.87,10.18,3.51,20.22,6.81Z"/><path class="cls-1" d="M75,140a47.6,47.6,0,0,1,27.73-3.13,44.64,44.64,0,0,1,9.65,3.13q6.17-51.71,12.35-103.43Q108.85,41.86,92.34,48.1,83.48,51.48,75,54.91Z"/><path class="cls-2" d="M71.43,47a2.24,2.24,0,0,1-.57-.08l-61.13-18a2,2,0,0,1-.14-3.79l61.13-23a2,2,0,0,1,1.34,0l60.88,20.5a2,2,0,0,1,0,3.8L72.06,46.9A2.24,2.24,0,0,1,71.43,47Z"/><path class="cls-2" d="M71.43,4,132.3,24.5,71.43,45,10.3,27,71.43,4m0-4A4,4,0,0,0,70,.26l-61.13,23a4,4,0,0,0,.28,7.58l61.13,18a4,4,0,0,0,2.4-.05l60.88-20.5a4,4,0,0,0,0-7.58L72.7.21A3.93,3.93,0,0,0,71.43,0Z"/><line class="cls-3" x1="9.3" y1="27" x2="9.3" y2="46.72"/><path class="cls-3" d="M11.66,50.05A2.68,2.68,0,0,1,9.3,53a3,3,0,0,1,0-5.8A2.67,2.67,0,0,1,11.66,50.05Z"/><path class="cls-4" d="M9,49.49,1,64.17a13.5,13.5,0,0,1,14.3,0Q12.17,56.82,9,49.49Z"/><text class="cls-5" transform="translate(131.53 101.98)">Gradesitory</text></g></g></svg>