<svg xmlns="http://www.w3.org/2000/svg" viewBox="0 0 188.97 65.68"><defs><style>.cls-1,.cls-2,.cls-3,.cls-4,.cls-5{fill:#fff;}.cls-1,.cls-3,.cls-4,.cls-5{stroke:#fff;}.cls-1,.cls-4{stroke-linejoin:round;}.cls-1,.cls-3{stroke-width:4px;}.cls-3,.cls-5{stroke-miterlimit:10;}.cls-4{stroke-linecap:square;stroke-width:2px;}.cls-5{font-size:25.33px;font-family:TimesNewRomanPSMT, Times New Roman;}</style></defs><g id="Layer_2" data-name="Layer 2"><g id="Layer_1-2" data-name="Layer 1"><path class="cls-1" d="M29.65,63.68a18.76,18.76,0,0,0-14.91,0L10.45,22.77q5.48,2,11.13,4,4.07,1.41,8.07,2.73Z"/><path class="cls-1" d="M36.48,63.68a18.84,18.84,0,0,1,11.06-1.27,17.55,17.55,0,0,1,3.85,1.27l4.92-41.6c-4.2,1.43-8.51,3-12.89,4.66q-3.54,1.35-6.94,2.73Z"/><path class="cls-2" d="M33,22.49a1.79,1.79,0,0,1-.51-.07L5.09,15.18A2,2,0,0,1,3.6,13.32a2,2,0,0,1,1.36-2L32.39,2.1A2.37,2.37,0,0,1,33,2a1.9,1.9,0,0,1,.58.09l27.32,8.24a2,2,0,0,1,0,3.83L33.61,22.4A1.9,1.9,0,0,1,33,22.49Z"/><path class="cls-2" d="M33,4l27.32,8.24L33,20.49,5.6,13.25,33,4m0-4a3.93,3.93,0,0,0-1.27.21L4.32,9.46a4,4,0,0,0,.26,7.66L32,24.36a4.46,4.46,0,0,0,1,.13,4.17,4.17,0,0,0,1.16-.17l27.32-8.25a4,4,0,0,0,0-7.66L34.19.17A4.17,4.17,0,0,0,33,0Z"/><line class="cls-3" x1="3.85" y1="14.25" x2="3.85" y2="22.18"/><path class="cls-3" d="M4.79,24.79A1.07,1.07,0,0,1,3.85,26a1.19,1.19,0,0,1,0-2.33A1.07,1.07,0,0,1,4.79,24.79Z"/><path class="cls-4" d="M4.21,26,1,31.86A5.45,5.45,0,0,1,3.65,31a5.41,5.41,0,0,1,3.05.82Z"/><text class="cls-5" transform="translate(66.04 42.4) scale(0.99 1)">Gradesitory</text></g></g></svg>